<svg xmlns="http://www.w3.org/2000/svg" xmlns:xlink="http://www.w3.org/1999/xlink" id="body_2" preserveAspectRatio="xMinYMin meet" viewBox="0 0 793 1123"><defs><clipPath id="1"><path id="" clip-rule="evenodd" transform="matrix(1 0 0 1 0 0)" d="M0 842L0 0L0 0L595.5 0L595.5 0L595.5 842L595.5 842L0 842z" /></clipPath><clipPath id="2"><path id="" clip-rule="evenodd" transform="matrix(1 0 0 1 0 0)" d="M0 0L595.5 0L595.5 0L595.5 842L595.5 842L0 842z" /></clipPath></defs><g transform="matrix(1.333333 0 0 1.333333 0 0)"><g clip-path="url(#1)"><g clip-path="url(#2)"><path id="34" transform="matrix(1 0 0 -1 0 842)" d="M49.55 768.8L545.85 768.8" stroke="#000000" stroke-width="1.44" fill="none" /><path id="452" transform="matrix(1 0 0 -1 0 842)" d="M49.55 592.3L545.85 592.3" stroke="#000000" stroke-width="1.44" fill="none" /></g></g></g></svg>