<svg xmlns="http://www.w3.org/2000/svg" xmlns:xlink="http://www.w3.org/1999/xlink" id="body_1" preserveAspectRatio="xMinYMin meet" viewBox="0 0 793 1123"><defs><clipPath id="1"><path id="" clip-rule="evenodd" transform="matrix(1 0 0 1 0 0)" d="M0 842L0 0L0 0L595.5 0L595.5 0L595.5 842L595.5 842L0 842z" /></clipPath><clipPath id="2"><path id="" clip-rule="evenodd" transform="matrix(1 0 0 1 0 0)" d="M0 0L595.5 0L595.5 0L595.5 842L595.5 842L0 842z" /></clipPath></defs><g transform="matrix(1.333333 0 0 1.333333 0 0)"><g clip-path="url(#1)"><g clip-path="url(#2)"><path id="63" transform="matrix(1 0 0 -1 0 842)" d="M51.2 722.6L546 722.6" stroke="#000000" stroke-width="1.32" fill="none" /><path id="796" transform="matrix(1 0 0 -1 0 842)" d="M51.2 491L546.1 491" stroke="#000000" stroke-width="1.32" fill="none" /><path id="1786" transform="matrix(1 0 0 -1 0 842)" d="M51.2 207.45L546.1 207.45" stroke="#000000" stroke-width="1.32" fill="none" /></g></g></g></svg>